<?xml version="1.0" standalone="no"?><!DOCTYPE svg PUBLIC "-//W3C//DTD SVG 1.1//EN" "http://www.w3.org/Graphics/SVG/1.1/DTD/svg11.dtd"><svg t="1576566298252" class="icon" viewBox="0 0 1109 1024" version="1.1" xmlns="http://www.w3.org/2000/svg" p-id="1911" xmlns:xlink="http://www.w3.org/1999/xlink" width="216.6015625" height="200"><defs><style type="text/css"></style></defs><path d="M1012.920568 469.559268c-15.332419 43.758169-43.523597 85.298574-85.298574 85.298574L294.493327 554.857842 309.207331 661.48106c3.326644 23.542406 19.085556 42.649287 42.649287 42.649287l618.414663 0 0 42.649287L330.531975 746.779634c-35.334934 0-57.960381-27.956608-63.973931-63.973931L181.25947 43.066397 10.662322 43.066397 10.662322 0.41711c0 0 131.317155-0.938284 170.597148 0 27.977932 0.661064 42.649287 42.649287 42.649287 42.649287l11.771203 85.298574L1012.920568 128.364971c59.090587 0 86.620702 24.864534 85.298574 85.298574L1012.920568 469.559268zM1012.920568 171.014258 351.856618 171.014258l-85.298574 0-24.992482 0 47.042164 341.194297L309.207331 512.208555l0 0 597.090019 0c36.550439 0 51.904182-10.79027 63.973931-42.649287l85.298574-234.571079C1063.438649 190.270411 1043.308185 171.014258 1012.920568 171.014258zM426.492871 789.428921c64.784267 0 117.285539 52.501272 117.285539 117.285539S491.277138 1024 426.492871 1024 309.207331 971.498728 309.207331 906.714461 361.708604 789.428921 426.492871 789.428921zM426.492871 981.350713c41.220536 0 74.636252-33.394392 74.636252-74.636252S467.713407 832.078208 426.492871 832.078208 351.856618 865.4726 351.856618 906.714461 385.272335 981.350713 426.492871 981.350713zM874.310385 789.428921c64.784267 0 117.285539 52.501272 117.285539 117.285539S939.094652 1024 874.310385 1024 757.024846 971.498728 757.024846 906.714461 809.526118 789.428921 874.310385 789.428921zM874.310385 981.350713c41.241861 0 74.636252-33.394392 74.636252-74.636252S915.552246 832.078208 874.310385 832.078208 799.674133 865.4726 799.674133 906.714461 833.068525 981.350713 874.310385 981.350713z" p-id="1912"></path></svg>