<?xml version="1.0" standalone="no"?><!DOCTYPE svg PUBLIC "-//W3C//DTD SVG 1.1//EN" "http://www.w3.org/Graphics/SVG/1.1/DTD/svg11.dtd"><svg t="1594609283968" class="icon" viewBox="0 0 1024 1024" version="1.1" xmlns="http://www.w3.org/2000/svg" p-id="2089" xmlns:xlink="http://www.w3.org/1999/xlink" width="200" height="200"><defs><style type="text/css"></style></defs><path d="M501 791.6c-9.7-7.2-10.8-19.9-2.3-28.2l484.1-473.3c8.5-8.3 23.4-9.2 33.1-1.9 9.7 7.2 10.8 19.9 2.3 28.2l-484 473.2c-8.5 8.3-23.4 9.2-33.2 2z" fill="#C6C6C6" p-id="2090"></path><path d="M516.6 801.8c-9.9 7-24.8 5.9-33.1-2.5l-472.1-482c-8.3-8.4-6.9-21.1 3-28.2 9.9-7 24.8-5.9 33.1 2.5l472.1 482c8.3 8.4 7 21.1-3 28.2z" fill="#C6C6C6" p-id="2091"></path></svg>