<?xml version="1.0" standalone="no"?><!DOCTYPE svg PUBLIC "-//W3C//DTD SVG 1.1//EN" "http://www.w3.org/Graphics/SVG/1.1/DTD/svg11.dtd"><svg t="1594703844651" class="icon" viewBox="0 0 1024 1024" version="1.1" xmlns="http://www.w3.org/2000/svg" p-id="15751" xmlns:xlink="http://www.w3.org/1999/xlink" width="200" height="200"><defs><style type="text/css"></style></defs><path d="M414.2 640c-158.8 0-288-129.2-288-288s129.2-288 288-288 288 129.2 288 288-129.2 288-288 288z m0-512c-123.5 0-224 100.5-224 224s100.5 224 224 224 224-100.5 224-224-100.5-224-224-224z" fill="#243154" p-id="15752"></path><path d="M700.2 960h-572c-18.2 0-35.6-7.8-47.8-21.4a64.69 64.69 0 0 1-16-50.1C84.3 710.3 234.7 576 414.2 576S744.1 710.3 764 888.5c2 18.2-3.8 36.4-16 50.1-12.2 13.6-29.6 21.4-47.8 21.4z m-286-320C267.3 640 144.3 749.9 128 895.6l572.2 0.4c-16.1-146.1-139.1-256-286-256zM898.9 896H832c-17.7 0-32-14.3-32-32s14.3-32 32-32h63.7c-10.9-90.2-68.5-169.2-150.9-206.5-10.8-4.9-18-15.4-18.8-27.3-0.7-11.9 5.3-23.2 15.5-29.3 61.5-37 98.2-102.2 98.2-174.3 0-79.3-46-151.7-117.1-184.6-16-7.4-23-26.4-15.6-42.5s26.5-23.1 42.5-15.7c93.7 43.3 154.3 138.5 154.3 242.7 0 75.7-32.5 147.6-87.2 197.7 79.1 52.7 132.5 139 143.1 235.2 1.9 17.5-3.7 35-15.4 48.1-11.6 13.1-28.2 20.5-45.4 20.5z m0-64z" fill="#243154" p-id="15753"></path></svg>