<?xml version="1.0" standalone="no"?><!DOCTYPE svg PUBLIC "-//W3C//DTD SVG 1.1//EN" "http://www.w3.org/Graphics/SVG/1.1/DTD/svg11.dtd"><svg t="1594703310768" class="icon" viewBox="0 0 1024 1024" version="1.1" xmlns="http://www.w3.org/2000/svg" p-id="10397" xmlns:xlink="http://www.w3.org/1999/xlink" width="200" height="200"><defs><style type="text/css"></style></defs><path d="M830.976 177.152c-84.992-82.432-196.608-126.976-315.392-124.928-227.84 4.608-417.28 185.344-431.104 411.648-5.12 82.432 12.288 163.84 51.2 236.544L92.16 904.704v3.072c0 17.92 14.336 32.256 32.256 32.256h4.096l196.096-55.296c66.56 33.792 141.312 50.176 216.064 47.616 114.688-4.096 221.696-52.736 301.056-136.192 79.872-83.456 122.88-192.512 121.856-307.2 0-118.784-47.616-229.376-132.608-311.808z m-291.84 693.76c-66.048 2.048-132.096-12.8-190.464-43.008-1.536-1.024-2.56-1.536-3.584-2.048l-10.752-7.168-170.496 48.128 35.84-167.424v-10.752l-3.072-6.656c-1.024-2.048-2.048-4.096-3.584-6.144l-1.536-3.072-0.512-0.512c-33.28-62.464-48.64-132.608-44.032-203.776 11.776-194.56 174.592-350.208 370.688-354.304 101.888-2.048 198.144 36.352 271.36 107.52 73.216 71.168 113.664 166.4 114.688 268.288 1.536 202.24-161.792 373.248-364.544 380.928z" fill="#333333" p-id="10398"></path><path d="M320 483.84m-52.224 0a52.224 52.224 0 1 0 104.448 0 52.224 52.224 0 1 0-104.448 0Z" fill="#333333" p-id="10399"></path><path d="M512 483.84m-52.224 0a52.224 52.224 0 1 0 104.448 0 52.224 52.224 0 1 0-104.448 0Z" fill="#333333" p-id="10400"></path><path d="M701.42588 532.072903a52.224 52.224 0 1 0 39.970519-96.49737 52.224 52.224 0 1 0-39.970519 96.49737Z" fill="#333333" p-id="10401"></path></svg>